<?xml version="1.0" encoding="UTF-8"?>
<svg version="1.1" xmlns="http://www.w3.org/2000/svg" width="1024" height="1024">
<path d="M0 0 C337.92 0 675.84 0 1024 0 C1024 337.92 1024 675.84 1024 1024 C686.08 1024 348.16 1024 0 1024 C0 686.08 0 348.16 0 0 Z " fill="#FDFEFE" transform="translate(0,0)"/>
<path d="M0 0 C1.43601059 -0.00018127 1.43601059 -0.00018127 2.90103149 -0.00036621 C19.14664083 0.028696 34.66095818 1.19763517 50.625 4.375 C51.40584961 4.51921387 52.18669922 4.66342773 52.99121094 4.81201172 C74.30592187 8.79223728 95.23661471 16.81101532 114.625 26.375 C115.71748047 26.90794678 115.71748047 26.90794678 116.83203125 27.45166016 C133.2627419 35.54489533 148.43754271 45.81614986 162.625 57.375 C163.17043457 57.8174707 163.71586914 58.25994141 164.27783203 58.71582031 C177.96295832 69.90521484 190.93137419 82.26660292 201.625 96.375 C202.38562744 97.35364014 202.38562744 97.35364014 203.16162109 98.35205078 C234.4073822 138.62296399 255.39916143 189.99193345 256.625 241.375 C256.65078125 242.2937793 256.6765625 243.21255859 256.703125 244.15917969 C258.34137739 310.11931656 235.27792147 373.29609538 190.72265625 422.0546875 C188.90792559 424.0620432 187.17108313 426.11067609 185.4375 428.1875 C176.0954511 438.86412732 164.94622543 447.8966921 153.625 456.375 C152.83351563 456.97441406 152.04203125 457.57382812 151.2265625 458.19140625 C131.56630771 472.50545141 108.74252159 484.76472232 85.625 492.375 C84.81949707 492.64119141 84.01399414 492.90738281 83.18408203 493.18164062 C31.56612402 510.05373799 -20.49488942 509.7018411 -72.8125 496.3125 C-73.7288623 496.07950195 -74.64522461 495.84650391 -75.58935547 495.60644531 C-81.73098063 493.97876226 -87.53036809 491.85798994 -93.375 489.375 C-94.07890869 489.08085205 -94.78281738 488.7867041 -95.50805664 488.48364258 C-112.48835042 481.31364402 -129.44193615 473.26245292 -144.375 462.375 C-144.97586426 461.94106934 -145.57672852 461.50713867 -146.19580078 461.06005859 C-166.27233658 446.51292912 -185.23905099 430.12770566 -200.375 410.375 C-201.14585937 409.42109375 -201.91671875 408.4671875 -202.7109375 407.484375 C-219.13748947 386.86050218 -231.81439278 363.52670032 -240.55664062 338.68945312 C-241.26894604 336.67493781 -242.01444118 334.67221842 -242.765625 332.671875 C-264.38130231 272.7499341 -258.52984052 204.75979162 -232.375 147.375 C-226.04369 134.0816497 -219.0713044 121.26976506 -210.375 109.375 C-209.87355469 108.68712402 -209.37210937 107.99924805 -208.85546875 107.29052734 C-202.57216486 98.7388896 -196.01948856 90.60346476 -188.734375 82.88671875 C-186.80141387 80.82894721 -184.97780862 78.74263388 -183.1875 76.5625 C-180.56185473 73.4581046 -177.63473241 70.85496969 -174.53515625 68.23046875 C-173.09719988 66.99533444 -171.68751018 65.72649826 -170.30859375 64.42578125 C-140.88033572 36.73762891 -101.44771559 16.9193174 -62.375 7.375 C-61.43237305 7.14441895 -60.48974609 6.91383789 -59.51855469 6.67626953 C-56.5793675 5.97107993 -53.63565837 5.29163673 -50.6875 4.625 C-49.8224585 4.42608154 -48.95741699 4.22716309 -48.06616211 4.0222168 C-32.19076321 0.60052888 -16.18793412 -0.03164006 0 0 Z " fill="#F9F9F9" transform="translate(511.375,261.625)"/>
<path d="M0 0 C1.43601059 -0.00018127 1.43601059 -0.00018127 2.90103149 -0.00036621 C19.14664083 0.028696 34.66095818 1.19763517 50.625 4.375 C51.40584961 4.51921387 52.18669922 4.66342773 52.99121094 4.81201172 C74.30592187 8.79223728 95.23661471 16.81101532 114.625 26.375 C115.71748047 26.90794678 115.71748047 26.90794678 116.83203125 27.45166016 C133.2627419 35.54489533 148.43754271 45.81614986 162.625 57.375 C163.17043457 57.8174707 163.71586914 58.25994141 164.27783203 58.71582031 C177.96295832 69.90521484 190.93137419 82.26660292 201.625 96.375 C202.38562744 97.35364014 202.38562744 97.35364014 203.16162109 98.35205078 C234.4073822 138.62296399 255.39916143 189.99193345 256.625 241.375 C256.65078125 242.2937793 256.6765625 243.21255859 256.703125 244.15917969 C258.34137739 310.11931656 235.27792147 373.29609538 190.72265625 422.0546875 C188.90792559 424.0620432 187.17108313 426.11067609 185.4375 428.1875 C176.0954511 438.86412732 164.94622543 447.8966921 153.625 456.375 C152.83351563 456.97441406 152.04203125 457.57382812 151.2265625 458.19140625 C131.56630771 472.50545141 108.74252159 484.76472232 85.625 492.375 C84.81949707 492.64119141 84.01399414 492.90738281 83.18408203 493.18164062 C31.56612402 510.05373799 -20.49488942 509.7018411 -72.8125 496.3125 C-73.7288623 496.07950195 -74.64522461 495.84650391 -75.58935547 495.60644531 C-81.73098063 493.97876226 -87.53036809 491.85798994 -93.375 489.375 C-94.07890869 489.08085205 -94.78281738 488.7867041 -95.50805664 488.48364258 C-112.48835042 481.31364402 -129.44193615 473.26245292 -144.375 462.375 C-144.97586426 461.94106934 -145.57672852 461.50713867 -146.19580078 461.06005859 C-166.27233658 446.51292912 -185.23905099 430.12770566 -200.375 410.375 C-201.14585937 409.42109375 -201.91671875 408.4671875 -202.7109375 407.484375 C-219.13748947 386.86050218 -231.81439278 363.52670032 -240.55664062 338.68945312 C-241.26894604 336.67493781 -242.01444118 334.67221842 -242.765625 332.671875 C-264.38130231 272.7499341 -258.52984052 204.75979162 -232.375 147.375 C-226.04369 134.0816497 -219.0713044 121.26976506 -210.375 109.375 C-209.87355469 108.68712402 -209.37210937 107.99924805 -208.85546875 107.29052734 C-202.57216486 98.7388896 -196.01948856 90.60346476 -188.734375 82.88671875 C-186.80141387 80.82894721 -184.97780862 78.74263388 -183.1875 76.5625 C-180.56185473 73.4581046 -177.63473241 70.85496969 -174.53515625 68.23046875 C-173.09719988 66.99533444 -171.68751018 65.72649826 -170.30859375 64.42578125 C-140.88033572 36.73762891 -101.44771559 16.9193174 -62.375 7.375 C-61.43237305 7.14441895 -60.48974609 6.91383789 -59.51855469 6.67626953 C-56.5793675 5.97107993 -53.63565837 5.29163673 -50.6875 4.625 C-49.8224585 4.42608154 -48.95741699 4.22716309 -48.06616211 4.0222168 C-32.19076321 0.60052888 -16.18793412 -0.03164006 0 0 Z M-54.375 12.375 C-55.99341797 12.75253418 -55.99341797 12.75253418 -57.64453125 13.13769531 C-97.32879004 22.67487359 -135.00862296 41.57822648 -165.1015625 69.28515625 C-167.22130212 71.23371415 -169.37983469 73.12257333 -171.5625 75 C-178.03218811 80.65123359 -183.86010243 86.79472449 -189.375 93.375 C-189.79910156 93.87999023 -190.22320312 94.38498047 -190.66015625 94.90527344 C-217.8294733 127.4668296 -236.60515523 165.57663797 -244.375 207.375 C-244.58914551 208.51340332 -244.58914551 208.51340332 -244.80761719 209.67480469 C-245.23972967 212.01015418 -245.65566188 214.34762163 -246.0625 216.6875 C-246.18214111 217.36804443 -246.30178223 218.04858887 -246.42504883 218.74975586 C-256.32870896 279.08380137 -239.55210175 343.85927339 -204.375 393.375 C-203.82424805 394.16197266 -203.27349609 394.94894531 -202.70605469 395.75976562 C-200.93854941 398.28421791 -199.15937298 400.79994721 -197.375 403.3125 C-196.81055176 404.11324951 -196.24610352 404.91399902 -195.66455078 405.73901367 C-195.13587402 406.4735376 -194.60719727 407.20806152 -194.0625 407.96484375 C-193.59199219 408.62347412 -193.12148438 409.28210449 -192.63671875 409.96069336 C-192.22035156 410.42741455 -191.80398438 410.89413574 -191.375 411.375 C-190.715 411.375 -190.055 411.375 -189.375 411.375 C-188.88 412.86 -188.88 412.86 -188.375 414.375 C-184.47694115 410.81821496 -182.01493881 407.33371588 -179.73828125 402.5546875 C-179.41760681 401.90348434 -179.09693237 401.25228119 -178.76654053 400.5813446 C-178.08442887 399.19360482 -177.40682682 397.8036406 -176.73342896 396.41165161 C-175.3151015 393.48035326 -173.87447513 390.56021556 -172.43479919 387.63935852 C-171.72029979 386.18944551 -171.00688246 384.73899875 -170.29457092 383.28800964 C-167.75820864 378.12604818 -165.1467311 373.01114017 -162.4375 367.9375 C-155.34929172 354.61293715 -148.4896177 341.16907733 -141.59277344 327.74481201 C-140.3383829 325.30374237 -139.08332772 322.86301539 -137.828125 320.42236328 C-125.27751191 296.03338576 -125.27751191 296.03338576 -112.96020508 271.52612305 C-109.9029931 265.38214624 -106.71766261 259.31454685 -103.49365234 253.25683594 C-99.31962804 245.36336796 -95.35250543 237.36860511 -91.375 229.375 C-87.14401217 220.87214053 -82.91454332 212.37690684 -78.4375 204 C-73.74192822 195.21210699 -69.31441753 186.29400322 -64.875 177.375 C-60.10471328 167.79129255 -55.3099817 158.23410613 -50.26171875 148.79296875 C-45.98006147 140.73085152 -41.9427385 132.54635139 -37.875 124.375 C-32.18381959 112.94582807 -26.44521681 101.55338544 -20.40527344 90.30322266 C-19.35472803 88.33705971 -18.32038907 86.36302147 -17.2890625 84.38671875 C-16.65122396 83.17438324 -16.01321454 81.96213761 -15.375 80.75 C-14.83875 79.72648437 -14.3025 78.70296875 -13.75 77.6484375 C-12.375 75.375 -12.375 75.375 -10.375 74.375 C-10.024375 75.509375 -9.67375 76.64375 -9.3125 77.8125 C-6.76843634 85.49409026 -3.50050716 92.91659797 -0.375 100.375 C2.2991653 98.02375278 3.51940638 95.75794128 4.88671875 92.48828125 C5.28310547 91.55048828 5.67949219 90.61269531 6.08789062 89.64648438 C6.49201172 88.67001953 6.89613281 87.69355469 7.3125 86.6875 C7.93608398 85.20540039 7.93608398 85.20540039 8.57226562 83.69335938 C9.59642239 81.25657259 10.61370265 78.81714514 11.625 76.375 C12.615 76.375 13.605 76.375 14.625 76.375 C18.49095339 84.10085151 22.35408842 91.82807764 26.20526123 99.56130981 C27.8769833 102.91754542 29.55048625 106.27289172 31.22412109 109.62817383 C32.07184973 111.32865973 32.91885999 113.02950396 33.76513672 114.73071289 C38.78098154 124.81188186 43.88505106 134.83578088 49.15377808 144.78730774 C52.40680908 150.93693034 55.54723669 157.13572472 58.625 163.375 C62.16532355 170.50555873 65.75871843 177.59779021 69.5 184.625 C73.9986983 193.07843634 78.27548093 201.63836202 82.53845215 210.2121582 C86.56979241 218.31594724 90.68393304 226.36603871 94.9375 234.35546875 C98.81258195 241.66240431 102.48458727 249.06702056 106.16455078 256.47363281 C109.2410259 262.65025583 112.38540557 268.78247241 115.625 274.875 C119.88855087 282.89322631 123.97084015 290.9944324 127.98828125 299.13867188 C131.44032048 306.10595669 135.03928459 312.98863884 138.67089844 319.86329651 C143.39280367 328.81028663 148.01407316 337.80794414 152.625 346.8125 C153.27864532 348.0875238 153.27864532 348.0875238 153.94549561 349.38830566 C159.14287239 359.52705661 164.30741813 369.67977517 169.37182617 379.88574219 C172.15679737 385.48199927 175.02727816 391.03038884 177.9375 396.5625 C178.33469238 397.31756836 178.73188477 398.07263672 179.14111328 398.85058594 C181.89918831 404.06479936 184.74301928 409.22833535 187.625 414.375 C192.73589276 410.81875143 196.08535704 406.19455275 199.75 401.25 C200.41161133 400.35909668 201.07322266 399.46819336 201.75488281 398.55029297 C231.14070915 358.46643358 248.5487343 310.19713319 249.625 260.375 C249.65078125 259.56353516 249.6765625 258.75207031 249.703125 257.91601562 C251.50310972 197.57152774 228.74838829 135.07307538 187.5625 90.6875 C187.08498291 90.1819458 186.60746582 89.6763916 186.11547852 89.15551758 C182.71396433 85.55292866 182.71396433 85.55292866 181.625 83.375 C180.965 83.375 180.305 83.375 179.625 83.375 C179.42390625 82.84003906 179.2228125 82.30507813 179.015625 81.75390625 C177.03266942 78.36171538 174.25247577 75.93336332 171.375 73.3125 C170.74948242 72.73959229 170.12396484 72.16668457 169.47949219 71.57641602 C122.67163476 29.19712154 62.22512989 6.91732298 -0.625 6.9375 C-1.62912933 6.93676483 -2.63325867 6.93602966 -3.66781616 6.93527222 C-21.05202384 6.96852677 -37.40887635 8.34579841 -54.375 12.375 Z " fill="#F8F8F8" transform="translate(511.375,261.625)"/>
<path d="M0 0 C0.66 0 1.32 0 2 0 C2.44653931 1.08269165 2.44653931 1.08269165 2.90209961 2.18725586 C4.24466362 5.4384053 5.5910287 8.68796694 6.9375 11.9375 C7.40607422 13.07380859 7.87464844 14.21011719 8.35742188 15.38085938 C8.80537109 16.46044922 9.25332031 17.54003906 9.71484375 18.65234375 C10.12855225 19.65257568 10.54226074 20.65280762 10.96850586 21.68334961 C11.79701292 23.91646275 11.79701292 23.91646275 13 25 C13.28721924 24.31373535 13.57443848 23.6274707 13.87036133 22.92041016 C15.17503468 19.81790061 16.49356448 16.7214717 17.8125 13.625 C18.49022461 12.00464844 18.49022461 12.00464844 19.18164062 10.3515625 C19.84389648 8.8046875 19.84389648 8.8046875 20.51953125 7.2265625 C21.12438354 5.79691162 21.12438354 5.79691162 21.74145508 4.33837891 C23 2 23 2 26 0 C28.78837167 3.40723853 30.68357459 7.13937354 32.6015625 11.07421875 C33.31407109 12.51744326 34.0266386 13.9606387 34.73925781 15.40380859 C35.29474304 16.53420563 35.29474304 16.53420563 35.8614502 17.68743896 C37.75542123 21.53437091 39.67169 25.37016012 41.5859375 29.20703125 C41.97396042 29.98564514 42.36198334 30.76425903 42.76176453 31.56646729 C52.48075249 51.12081807 52.48075249 51.12081807 62.56591797 70.48754883 C66.36726324 77.62441267 69.9473834 84.86882126 73.54516602 92.10986328 C76.57833595 98.19950909 79.67791386 104.24494676 82.875 110.25 C87.3736983 118.70343634 91.65048093 127.26336202 95.91345215 135.8371582 C99.94479241 143.94094724 104.05893304 151.99103871 108.3125 159.98046875 C112.18758195 167.28740431 115.85958727 174.69202056 119.53955078 182.09863281 C122.6160259 188.27525583 125.76040557 194.40747241 129 200.5 C133.26355087 208.51822631 137.34584015 216.6194324 141.36328125 224.76367188 C144.81532048 231.73095669 148.41428459 238.61363884 152.04589844 245.48829651 C156.76780367 254.43528663 161.38907316 263.43294414 166 272.4375 C166.65364532 273.7125238 166.65364532 273.7125238 167.32049561 275.01330566 C172.51665722 285.14968611 177.68327868 295.29852241 182.74243164 305.50415039 C186.33072013 312.72040828 190.0929455 319.84268717 193.87109375 326.9609375 C199 336.67480943 199 336.67480943 199 339 C190.65367146 337.93452931 182.78284415 334.71420073 174.87768555 331.95532227 C172.91980205 331.27754959 170.95782623 330.61148341 168.99194336 329.95727539 C166.13957758 329.00744212 163.30196518 328.02165754 160.46484375 327.02734375 C159.15373878 326.60182472 159.15373878 326.60182472 157.81614685 326.16770935 C151.4919438 323.88426992 148.88129589 321.01413009 146 315 C145.5580127 314.15542236 145.11602539 313.31084473 144.66064453 312.44067383 C144.32145996 311.70357178 143.98227539 310.96646973 143.6328125 310.20703125 C143.23102783 309.3466626 142.82924316 308.48629395 142.4152832 307.59985352 C141.77659302 306.22011353 141.77659302 306.22011353 141.125 304.8125 C137.03624926 296.1285201 132.75881463 287.56857286 128.3125 279.0625 C120.21994733 263.5663741 112.43073938 247.92124394 104.65161133 232.26586914 C99.67286109 222.25921792 94.62577458 212.30016741 89.39128113 202.4246521 C86.16238115 196.3306025 83.05104164 190.18510482 80 184 C76.45967645 176.86944127 72.86628157 169.77720979 69.125 162.75 C64.94763511 154.90037644 60.9585805 146.96151779 57 139 C53.165681 131.28860291 49.30898434 123.59627551 45.25 116 C39.46673837 105.16912153 34.04885607 94.15141648 28.59472656 83.15234375 C27.85261399 81.65865515 27.11010585 80.165163 26.3671875 78.671875 C25.82620422 77.58392639 25.82620422 77.58392639 25.27429199 76.47399902 C22.4305631 70.78749861 19.46135273 65.17406374 16.39279175 59.60565186 C14 55.21225157 14 55.21225157 14 53 C13.34 53 12.68 53 12 53 C11.73912598 53.85223145 11.47825195 54.70446289 11.20947266 55.58251953 C9.9488411 59.14455435 8.3987585 62.33184011 6.6484375 65.6796875 C6.31736496 66.31680664 5.98629242 66.95392578 5.64518738 67.61035156 C4.93127722 68.98366071 4.21551435 70.35600803 3.49807739 71.72747803 C1.56837188 75.41741517 -0.34678682 79.11487975 -2.26171875 82.8125 C-2.65571365 83.5727951 -3.04970856 84.33309021 -3.4556427 85.11642456 C-7.53039223 92.9958251 -11.48964535 100.93147828 -15.4375 108.875 C-19.92369954 117.89495739 -24.46077412 126.87724854 -29.20483398 135.76513672 C-33.73691392 144.30154348 -38.01145724 152.96936251 -42.29711914 161.63134766 C-46.10427084 169.30919682 -50.03937281 176.91067029 -54.04512024 184.48674011 C-59.1828942 194.21573689 -64.18703898 204.01240791 -69.1875 213.8125 C-69.69702209 214.81003296 -70.20654419 215.80756592 -70.73150635 216.83532715 C-79.64509781 234.29144091 -88.44322992 251.80389449 -97.16088867 269.35864258 C-106.60517485 288.3531096 -106.60517485 288.3531096 -111.31074524 296.96910095 C-113.47026147 300.94265156 -115.39234224 304.87290801 -117.04272461 309.08618164 C-120.63443353 317.79144789 -123.92144233 323.32719313 -132.7696228 327.23654175 C-137.75950169 329.13226038 -142.81893572 330.68199282 -147.9375 332.1875 C-150.03658096 332.86535019 -152.13362013 333.54955744 -154.22851562 334.24023438 C-168.89310971 339 -168.89310971 339 -173 339 C-171.64028657 334.61517171 -169.9332419 330.62075773 -167.875 326.51953125 C-167.57232208 325.91422577 -167.26964417 325.30892029 -166.95779419 324.68527222 C-165.97611513 322.72551298 -164.98834748 320.76890359 -164 318.8125 C-163.31091704 317.44187253 -162.62195316 316.07118518 -161.93310547 314.70043945 C-158.02081047 306.92964395 -154.04988402 299.19341823 -149.96826172 291.51000977 C-143.25596682 278.86426139 -136.76010601 266.10404305 -130.21777344 253.36981201 C-128.9633829 250.92874237 -127.70832772 248.48801539 -126.453125 246.04736328 C-113.90251191 221.65838576 -113.90251191 221.65838576 -101.58520508 197.15112305 C-98.5279931 191.00714624 -95.34266261 184.93954685 -92.11865234 178.88183594 C-87.94462804 170.98836796 -83.97750543 162.99360511 -80 155 C-75.76901217 146.49714053 -71.53954332 138.00190684 -67.0625 129.625 C-62.36692822 120.83710699 -57.93941753 111.91900322 -53.5 103 C-48.72971328 93.41629255 -43.9349817 83.85910613 -38.88671875 74.41796875 C-34.60506147 66.35585152 -30.5677385 58.17135139 -26.5 50 C-20.8092054 38.57160285 -15.07203567 27.17879171 -9.03466797 15.92822266 C-7.97781229 13.95865064 -6.92790972 11.98548236 -5.87890625 10.01171875 C-1.15404326 1.15404326 -1.15404326 1.15404326 0 0 Z " fill="#434546" transform="translate(499,336)"/>
<path d="M0 0 C1.43601059 -0.00018127 1.43601059 -0.00018127 2.90103149 -0.00036621 C19.14664083 0.028696 34.66095818 1.19763517 50.625 4.375 C51.40584961 4.51921387 52.18669922 4.66342773 52.99121094 4.81201172 C74.30592187 8.79223728 95.23661471 16.81101532 114.625 26.375 C115.71748047 26.90794678 115.71748047 26.90794678 116.83203125 27.45166016 C133.2627419 35.54489533 148.43754271 45.81614986 162.625 57.375 C163.17043457 57.8174707 163.71586914 58.25994141 164.27783203 58.71582031 C177.96295832 69.90521484 190.93137419 82.26660292 201.625 96.375 C202.38562744 97.35364014 202.38562744 97.35364014 203.16162109 98.35205078 C234.4073822 138.62296399 255.39916143 189.99193345 256.625 241.375 C256.65078125 242.2937793 256.6765625 243.21255859 256.703125 244.15917969 C258.34137739 310.11931656 235.27792147 373.29609538 190.72265625 422.0546875 C188.90792559 424.0620432 187.17108313 426.11067609 185.4375 428.1875 C176.0954511 438.86412732 164.94622543 447.8966921 153.625 456.375 C152.83351563 456.97441406 152.04203125 457.57382812 151.2265625 458.19140625 C131.56630771 472.50545141 108.74252159 484.76472232 85.625 492.375 C84.81949707 492.64119141 84.01399414 492.90738281 83.18408203 493.18164062 C31.56612402 510.05373799 -20.49488942 509.7018411 -72.8125 496.3125 C-73.7288623 496.07950195 -74.64522461 495.84650391 -75.58935547 495.60644531 C-81.73098063 493.97876226 -87.53036809 491.85798994 -93.375 489.375 C-94.07890869 489.08085205 -94.78281738 488.7867041 -95.50805664 488.48364258 C-112.48835042 481.31364402 -129.44193615 473.26245292 -144.375 462.375 C-144.97586426 461.94106934 -145.57672852 461.50713867 -146.19580078 461.06005859 C-166.27233658 446.51292912 -185.23905099 430.12770566 -200.375 410.375 C-201.14585937 409.42109375 -201.91671875 408.4671875 -202.7109375 407.484375 C-219.13748947 386.86050218 -231.81439278 363.52670032 -240.55664062 338.68945312 C-241.26894604 336.67493781 -242.01444118 334.67221842 -242.765625 332.671875 C-264.38130231 272.7499341 -258.52984052 204.75979162 -232.375 147.375 C-226.04369 134.0816497 -219.0713044 121.26976506 -210.375 109.375 C-209.87355469 108.68712402 -209.37210937 107.99924805 -208.85546875 107.29052734 C-202.57216486 98.7388896 -196.01948856 90.60346476 -188.734375 82.88671875 C-186.80141387 80.82894721 -184.97780862 78.74263388 -183.1875 76.5625 C-180.56185473 73.4581046 -177.63473241 70.85496969 -174.53515625 68.23046875 C-173.09719988 66.99533444 -171.68751018 65.72649826 -170.30859375 64.42578125 C-140.88033572 36.73762891 -101.44771559 16.9193174 -62.375 7.375 C-61.43237305 7.14441895 -60.48974609 6.91383789 -59.51855469 6.67626953 C-56.5793675 5.97107993 -53.63565837 5.29163673 -50.6875 4.625 C-49.8224585 4.42608154 -48.95741699 4.22716309 -48.06616211 4.0222168 C-32.19076321 0.60052888 -16.18793412 -0.03164006 0 0 Z M-54.375 12.375 C-55.99341797 12.75253418 -55.99341797 12.75253418 -57.64453125 13.13769531 C-97.32879004 22.67487359 -135.00862296 41.57822648 -165.1015625 69.28515625 C-167.22130212 71.23371415 -169.37983469 73.12257333 -171.5625 75 C-178.03218811 80.65123359 -183.86010243 86.79472449 -189.375 93.375 C-189.79910156 93.87999023 -190.22320312 94.38498047 -190.66015625 94.90527344 C-217.8294733 127.4668296 -236.60515523 165.57663797 -244.375 207.375 C-244.58914551 208.51340332 -244.58914551 208.51340332 -244.80761719 209.67480469 C-245.23972967 212.01015418 -245.65566188 214.34762163 -246.0625 216.6875 C-246.18214111 217.36804443 -246.30178223 218.04858887 -246.42504883 218.74975586 C-256.32870896 279.08380137 -239.55210175 343.85927339 -204.375 393.375 C-203.82424805 394.16197266 -203.27349609 394.94894531 -202.70605469 395.75976562 C-200.93854941 398.28421791 -199.15937298 400.79994721 -197.375 403.3125 C-196.81055176 404.11324951 -196.24610352 404.91399902 -195.66455078 405.73901367 C-195.13587402 406.4735376 -194.60719727 407.20806152 -194.0625 407.96484375 C-193.59199219 408.62347412 -193.12148438 409.28210449 -192.63671875 409.96069336 C-192.22035156 410.42741455 -191.80398438 410.89413574 -191.375 411.375 C-190.715 411.375 -190.055 411.375 -189.375 411.375 C-188.88 412.86 -188.88 412.86 -188.375 414.375 C-187.715 414.375 -187.055 414.375 -186.375 414.375 C-186.13595947 414.93711182 -185.89691895 415.49922363 -185.65063477 416.07836914 C-182.8930515 421.04307456 -178.31209565 424.82847596 -174.3125 428.8125 C-173.57228104 429.55240173 -173.57228104 429.55240173 -172.81710815 430.30725098 C-164.24770065 438.84008523 -155.31279703 446.47292059 -145.375 453.375 C-144.75109375 453.8169873 -144.1271875 454.25897461 -143.484375 454.71435547 C-118.85163156 472.10864305 -91.72630646 484.30022688 -62.58398438 491.8046875 C-61.16383424 492.17133988 -59.74564323 492.54571378 -58.33007812 492.9296875 C1.63472883 509.07630869 70.85802866 497.89951144 124.48706055 467.64941406 C151.35569074 451.95997984 176.53967836 431.04549102 195.625 406.375 C196.3051416 405.5094751 196.3051416 405.5094751 196.99902344 404.62646484 C229.27507511 363.45671155 248.49158611 312.84261822 249.625 260.375 C249.65078125 259.56353516 249.6765625 258.75207031 249.703125 257.91601562 C251.50310972 197.57152774 228.74838829 135.07307538 187.5625 90.6875 C187.08498291 90.1819458 186.60746582 89.6763916 186.11547852 89.15551758 C182.71396433 85.55292866 182.71396433 85.55292866 181.625 83.375 C180.965 83.375 180.305 83.375 179.625 83.375 C179.42390625 82.84003906 179.2228125 82.30507813 179.015625 81.75390625 C177.03266942 78.36171538 174.25247577 75.93336332 171.375 73.3125 C170.74948242 72.73959229 170.12396484 72.16668457 169.47949219 71.57641602 C122.67163476 29.19712154 62.22512989 6.91732298 -0.625 6.9375 C-1.62912933 6.93676483 -2.63325867 6.93602966 -3.66781616 6.93527222 C-21.05202384 6.96852677 -37.40887635 8.34579841 -54.375 12.375 Z " fill="#EAEBEB" transform="translate(511.375,261.625)"/>
<path d="M0 0 C0.66 0 1.32 0 2 0 C3.96068791 3.6093614 5.91775927 7.22065776 7.87158203 10.83374023 C8.53596864 12.06115812 9.20132014 13.28805426 9.86767578 14.5144043 C10.828419 16.28294731 11.78534306 18.05356333 12.7421875 19.82421875 C13.3182373 20.88729248 13.89428711 21.95036621 14.48779297 23.0456543 C15.82569677 25.65946992 16.96570329 28.25445272 18 31 C18.66 31 19.32 31 20 31 C20.27328125 30.28666504 20.5465625 29.57333008 20.828125 28.83837891 C22.00168818 25.99591109 23.32680082 23.3113448 24.75 20.5859375 C25.2759375 19.57789063 25.801875 18.56984375 26.34375 17.53125 C26.8903125 16.4896875 27.436875 15.448125 28 14.375 C28.5465625 13.32570313 29.093125 12.27640625 29.65625 11.1953125 C33.73549107 3.39676339 33.73549107 3.39676339 36 0 C36.66 0 37.32 0 38 0 C38.37270303 0.74678874 38.37270303 0.74678874 38.75293541 1.50866413 C44.84607691 13.71719408 50.94155713 25.92455393 57.03944969 38.13071156 C59.98847617 44.03395154 62.93676812 49.93755583 65.88330078 55.84204102 C68.73444311 61.55530478 71.5876201 67.26754839 74.44212723 72.9791317 C75.52310214 75.14290901 76.60338097 77.30703424 77.68290329 79.47153664 C83.25013041 90.632979 88.85924816 101.76401357 94.71545982 112.77721882 C98.35602186 119.62528695 101.77448704 126.56749879 105.125 133.5625 C105.69992187 134.74779297 106.27484375 135.93308594 106.8671875 137.15429688 C107.67929687 138.84329102 107.67929687 138.84329102 108.5078125 140.56640625 C109.22928467 142.06602905 109.22928467 142.06602905 109.96533203 143.59594727 C111 146 111 146 111 148 C110.40515808 147.82862015 109.81031616 147.6572403 109.19744873 147.48066711 C104.16607551 146.06712566 99.17729423 144.83432873 94.03989792 143.86254978 C80.33940138 141.11662749 66.93205088 137.16867289 58.57764435 125.28613472 C51.59025975 114.29344624 46.33202596 102.34135647 41.13134766 90.43048096 C38.80725636 85.184537 36.33759057 80.0079783 33.8828125 74.82226562 C30.33669346 67.28045167 26.84501543 59.71795944 23.46777344 52.09887695 C23.11289856 51.3036261 22.75802368 50.50837524 22.39239502 49.68902588 C20 44.24249586 20 44.24249586 20 42 C19.34 42 18.68 42 18 42 C17.64228516 43.22396484 17.64228516 43.22396484 17.27734375 44.47265625 C15.74411553 48.70661674 13.71143738 52.48999097 11.5625 56.4375 C8.38771507 62.37157595 5.30458586 68.3277269 2.44042969 74.41845703 C1.58433173 76.22507061 0.70903145 78.02267691 -0.18261719 79.81201172 C-3.06544923 85.65083931 -5.59522964 91.47956527 -7.90348816 97.56483459 C-20.75795188 130.96573987 -20.75795188 130.96573987 -36.01171875 137.74609375 C-45.02885332 141.38272729 -54.44346427 143.69775332 -63.96575928 145.56616211 C-67.02859001 146.21936505 -70.00162098 147.09875313 -73 148 C-71.41376463 142.72469774 -69.15034591 137.93969227 -66.73046875 133.01171875 C-66.30267624 132.13398804 -65.87488373 131.25625732 -65.43412781 130.35192871 C-64.0230939 127.46155575 -62.60574048 124.57434302 -61.1875 121.6875 C-60.69614563 120.6844986 -60.20479126 119.68149719 -59.69854736 118.64810181 C-52.49233776 103.94357827 -45.13477048 89.32392732 -37.62841797 74.77062988 C-29.18143336 58.39253826 -20.91823311 41.92494868 -12.6875 25.4375 C-12.36918968 24.79995663 -12.05087936 24.16241325 -11.72292328 23.50555038 C-7.81197236 15.67201651 -3.90419864 7.83690168 0 0 Z " fill="#1EB1D9" transform="translate(493,496)"/>
<path d="M0 0 C0.66 0 1.32 0 2 0 C2.19110352 0.52956299 2.38220703 1.05912598 2.57910156 1.60473633 C3.45631643 4.01232696 4.35288425 6.41225764 5.25 8.8125 C5.55035156 9.64587891 5.85070312 10.47925781 6.16015625 11.33789062 C8.25572075 17.23832701 8.25572075 17.23832701 13 21 C15.71857276 22.1593053 18.46766514 23.19205334 21.25 24.1875 C22.36761719 24.59645508 22.36761719 24.59645508 23.5078125 25.01367188 C25.33635605 25.68179356 27.1678908 26.34171891 29 27 C26.11915045 28.92056637 23.51864121 29.8503107 20.24902344 30.90087891 C12.54159812 33.11795605 12.54159812 33.11795605 7.25 38.625 C6.77880308 40.06663819 6.36899353 41.52888104 6 43 C5.25420959 45.16811926 4.50402336 47.33473022 3.75 49.5 C3.16068219 51.33141842 2.57524471 53.16411264 2 55 C-0.55320319 53.7233984 -0.58962088 52.90007922 -1.5078125 50.25390625 C-1.77207031 49.49916016 -2.03632813 48.74441406 -2.30859375 47.96679688 C-2.57800781 47.17337891 -2.84742188 46.37996094 -3.125 45.5625 C-3.54072266 44.37817383 -3.54072266 44.37817383 -3.96484375 43.16992188 C-6 37.29002463 -6 37.29002463 -6 35 C-6.65355469 34.89816406 -7.30710937 34.79632813 -7.98046875 34.69140625 C-11.90807673 33.7920704 -15.55780849 32.38367698 -19.3125 30.9375 C-20.05306641 30.65583984 -20.79363281 30.37417969 -21.55664062 30.08398438 C-23.37242655 29.39281425 -25.18639899 28.69688311 -27 28 C-26.67 27.34 -26.34 26.68 -26 26 C-24.25341797 25.43188477 -24.25341797 25.43188477 -21.9921875 24.94140625 C-12.59862132 22.75084349 -12.59862132 22.75084349 -5.41748047 16.8125 C-2.78478551 11.47834955 -1.21313361 5.80862616 0 0 Z " fill="#454747" transform="translate(511,441)"/>
<path d="M0 0 C0.66 0 1.32 0 2 0 C2.12826172 0.54414551 2.25652344 1.08829102 2.38867188 1.64892578 C4.72821143 12.11675513 4.72821143 12.11675513 10.85351562 20.45654297 C15.34431887 22.78145598 20.10665191 23.84133278 25 25 C25.99 25.66 26.98 26.32 28 27 C27.21496094 27.32613281 26.42992187 27.65226562 25.62109375 27.98828125 C24.57050781 28.42527344 23.51992188 28.86226563 22.4375 29.3125 C21.40496094 29.74175781 20.37242187 30.17101562 19.30859375 30.61328125 C18.21675781 31.07089844 17.12492188 31.52851563 16 32 C14.7934375 32.37125 13.586875 32.7425 12.34375 33.125 C7.67782309 35.74140761 6.77716612 38.79246956 5.0625 43.6875 C4.60907227 44.88342773 4.60907227 44.88342773 4.14648438 46.10351562 C3.40819705 48.06056299 2.70094136 50.02926821 2 52 C1.34 52 0.68 52 0 52 C-0.3403125 50.89140625 -0.680625 49.7828125 -1.03125 48.640625 C-3.34473408 40.83356329 -3.34473408 40.83356329 -7.7578125 34.1875 C-9.83060721 33.14676626 -11.74724428 32.55853448 -14 32 C-16.14877676 31.30064657 -18.29450474 30.59187386 -20.4375 29.875 C-21.46746094 29.56304687 -22.49742187 29.25109375 -23.55859375 28.9296875 C-26 28 -26 28 -27 26 C-26.43079834 25.88744873 -25.86159668 25.77489746 -25.27514648 25.65893555 C-14.0806262 23.46562491 -14.0806262 23.46562491 -5.36572266 16.80371094 C-2.6858168 11.45643679 -1.23464596 5.8296255 0 0 Z " fill="#454747" transform="translate(511,296)"/>
</svg>
